ISO-10303-21;
HEADER;
FILE_DESCRIPTION(('Open CASCADE Model'),'2;1');
FILE_NAME('Open CASCADE Shape Model','2026-10-04T23:05:31',('Author'),(
    'Open CASCADE'),'Open CASCADE STEP processor 7.9','Open CASCADE 7.9'
  ,'Unknown');
FILE_SCHEMA(('AUTOMOTIVE_DESIGN { 1 0 10303 214 1 1 1 1 }'));
ENDSEC;
DATA;
#1 = APPLICATION_PROTOCOL_DEFINITION('international standard',
  'automotive_design',2000,#2);
#2 = APPLICATION_CONTEXT(
  'core data for automotive mechanical design processes');
#3 = SHAPE_DEFINITION_REPRESENTATION(#4,#10);
#4 = PRODUCT_DEFINITION_SHAPE('','',#5);
#5 = PRODUCT_DEFINITION('design','',#6,#9);
#6 = PRODUCT_DEFINITION_FORMATION('','',#7);
#7 = PRODUCT('Open CASCADE STEP translator 7.9 19',
  'Open CASCADE STEP translator 7.9 19','',(#8));
#8 = PRODUCT_CONTEXT('',#2,'mechanical');
#9 = PRODUCT_DEFINITION_CONTEXT('part definition',#2,'design');
#10 = ADVANCED_BREP_SHAPE_REPRESENTATION('',(#11,#15),#893);
#11 = AXIS2_PLACEMENT_3D('',#12,#13,#14);
#12 = CARTESIAN_POINT('',(0.,0.,0.));
#13 = DIRECTION('',(0.,0.,1.));
#14 = DIRECTION('',(1.,0.,-0.));
#15 = MANIFOLD_SOLID_BREP('',#16);
#16 = CLOSED_SHELL('',(#17,#425,#604,#758,#785,#812,#839,#866));
#17 = ADVANCED_FACE('',(#18),#32,.F.);
#18 = FACE_BOUND('',#19,.F.);
#19 = EDGE_LOOP('',(#20,#116,#270,#271));
#20 = ORIENTED_EDGE('',*,*,#21,.T.);
#21 = EDGE_CURVE('',#22,#24,#26,.T.);
#22 = VERTEX_POINT('',#23);
#23 = CARTESIAN_POINT('',(260.,18.85,-5.));
#24 = VERTEX_POINT('',#25);
#25 = CARTESIAN_POINT('',(265.,18.85,-5.));
#26 = SEAM_CURVE('',#27,(#31,#109),.PCURVE_S1.);
#27 = LINE('',#28,#29);
#28 = CARTESIAN_POINT('',(260.,18.85,-5.));
#29 = VECTOR('',#30,1.);
#30 = DIRECTION('',(1.,0.,0.));
#31 = PCURVE('',#32,#103);
#32 = SURFACE_OF_LINEAR_EXTRUSION('',#33,#101);
#33 = B_SPLINE_CURVE_WITH_KNOTS('',3,(#34,#35,#36,#37,#38,#39,#40,#41,
    #42,#43,#44,#45,#46,#47,#48,#49,#50,#51,#52,#53,#54,#55,#56,#57,#58,
    #59,#60,#61,#62,#63,#64,#65,#66,#67,#68,#69,#70,#71,#72,#73,#74,#75,
    #76,#77,#78,#79,#80,#81,#82,#83,#84,#85,#86,#87,#88,#89,#90,#91,#92,
    #93,#94,#95,#96,#97,#98,#99,#100),.UNSPECIFIED.,.T.,.F.,(1,1,2,1,1,1
    ,1,1,1,1,1,1,1,1,1,1,1,1,1,1,1,1,1,1,1,1,1,1,1,1,1,1,1,1,1,1,1,1,1,1
    ,1,1,1,1,1,1,1,1,1,1,1,1,1,1,1,1,1,1,1,1,1,1,1,1,1,1,2,1,1),(
    -6.012235240703,-3.795143542094,0.,3.795143542094,6.012235240703,
    7.858603427219,9.497496023393,11.002845160252,12.421271465279,
    13.788665958266,15.136303908256,16.493548163324,17.889450615925,
    19.354478051728,20.923575253183,22.642894643021,24.587556309854,
    26.927314252728,30.934970913614,34.942627575085,37.28238551796,
    39.227047184792,40.94636657463,42.515463776086,43.980491211889,
    45.376393664489,46.733637919557,48.081275869547,49.448670362534,
    50.867096667561,52.37244580442,54.011338400595,55.857706587111,
    58.074798285719,61.869941827373,65.665085369907,67.882177068516,
    69.728545255032,71.367437851207,72.872786988065,74.291213293093,
    75.65860778608,77.006245736069,78.363489991137,79.759392443738,
    81.224419879541,82.793517080996,84.512836470835,86.457498137667,
    88.797256080542,92.804912741111,96.812569402898,99.152327345773,
    101.0969890126,102.81630840244,104.38540560389,105.8504330397,
    107.2463354923,108.60357974737,109.95121769736,111.31861219034,
    112.73703849537,114.24238763223,115.8812802284,117.72764841492,
    119.94474011353,123.73988365562,127.53502719772,129.75211889632),
  .UNSPECIFIED.);
#34 = CARTESIAN_POINT('',(260.,18.851358421347,-6.260247050377));
#35 = CARTESIAN_POINT('',(260.,18.848641578653,-3.739752949623));
#36 = CARTESIAN_POINT('',(260.,18.850603354909,-1.72834944303));
#37 = CARTESIAN_POINT('',(260.,18.650837100787,0.884586836141));
#38 = CARTESIAN_POINT('',(260.,18.347220561514,2.763825892449));
#39 = CARTESIAN_POINT('',(260.,17.922059360766,4.37513471276));
#40 = CARTESIAN_POINT('',(260.,17.37403620578,5.797455578036));
#41 = CARTESIAN_POINT('',(260.,16.701930014339,7.064253943764));
#42 = CARTESIAN_POINT('',(260.,15.904345568372,8.192504308264));
#43 = CARTESIAN_POINT('',(260.,14.979369737688,9.191381982497));
#44 = CARTESIAN_POINT('',(260.,13.923954396787,10.066114772955));
#45 = CARTESIAN_POINT('',(260.,12.732724986653,10.81990500508));
#46 = CARTESIAN_POINT('',(260.,11.395890681056,11.454910386924));
#47 = CARTESIAN_POINT('',(260.,9.89529261755,11.972700808018));
#48 = CARTESIAN_POINT('',(260.,8.19520234252,12.37450236143));
#49 = CARTESIAN_POINT('',(260.,6.212462576384,12.661642842466));
#50 = CARTESIAN_POINT('',(260.,3.452642780653,12.850233178243));
#51 = CARTESIAN_POINT('',(260.,9.594252043469E-11,12.849852774967));
#52 = CARTESIAN_POINT('',(260.,-3.452642780453,12.850233178236));
#53 = CARTESIAN_POINT('',(260.,-6.212462576394,12.661642842504));
#54 = CARTESIAN_POINT('',(260.,-8.195202342491,12.374502361318));
#55 = CARTESIAN_POINT('',(260.,-9.895292617641,11.972700808371));
#56 = CARTESIAN_POINT('',(260.,-11.39589068075,11.454910385763));
#57 = CARTESIAN_POINT('',(260.,-12.73272498767,10.819905009029));
#58 = CARTESIAN_POINT('',(260.,-13.92395439319,10.066114759119));
#59 = CARTESIAN_POINT('',(260.,-14.97936975065,9.191382032485));
#60 = CARTESIAN_POINT('',(260.,-15.90434551999,8.192504121832));
#61 = CARTESIAN_POINT('',(260.,-16.70193020078,7.0642546623));
#62 = CARTESIAN_POINT('',(260.,-17.3740354625,5.797452713514));
#63 = CARTESIAN_POINT('',(260.,-17.9220624324,4.375146550588));
#64 = CARTESIAN_POINT('',(260.,-18.34720730917,2.763774819079));
#65 = CARTESIAN_POINT('',(260.,-18.65089823246,0.884822432434));
#66 = CARTESIAN_POINT('',(260.,-18.85023966982,-1.729751054191));
#67 = CARTESIAN_POINT('',(260.,-18.8498487116,-4.999999999853));
#68 = CARTESIAN_POINT('',(260.,-18.85023966984,-8.270248945516));
#69 = CARTESIAN_POINT('',(260.,-18.65089823246,-10.88482243243));
#70 = CARTESIAN_POINT('',(260.,-18.34720730917,-12.76377481907));
#71 = CARTESIAN_POINT('',(260.,-17.9220624324,-14.37514655058));
#72 = CARTESIAN_POINT('',(260.,-17.3740354625,-15.79745271351));
#73 = CARTESIAN_POINT('',(260.,-16.70193020078,-17.0642546623));
#74 = CARTESIAN_POINT('',(260.,-15.90434551999,-18.19250412183));
#75 = CARTESIAN_POINT('',(260.,-14.97936975065,-19.19138203248));
#76 = CARTESIAN_POINT('',(260.,-13.92395439319,-20.06611475911));
#77 = CARTESIAN_POINT('',(260.,-12.73272498767,-20.81990500902));
#78 = CARTESIAN_POINT('',(260.,-11.39589068075,-21.45491038576));
#79 = CARTESIAN_POINT('',(260.,-9.895292617641,-21.97270080837));
#80 = CARTESIAN_POINT('',(260.,-8.195202342491,-22.37450236131));
#81 = CARTESIAN_POINT('',(260.,-6.212462576394,-22.6616428425));
#82 = CARTESIAN_POINT('',(260.,-3.452642780754,-22.85023317821));
#83 = CARTESIAN_POINT('',(260.,-2.014186141824E-10,-22.84985277496));
#84 = CARTESIAN_POINT('',(260.,3.452642780343,-22.85023317826));
#85 = CARTESIAN_POINT('',(260.,6.212462576404,-22.66164284246));
#86 = CARTESIAN_POINT('',(260.,8.195202342462,-22.37450236143));
#87 = CARTESIAN_POINT('',(260.,9.895292617733,-21.97270080801));
#88 = CARTESIAN_POINT('',(260.,11.395890680454,-21.45491038692));
#89 = CARTESIAN_POINT('',(260.,12.732724988702,-20.81990500508));
#90 = CARTESIAN_POINT('',(260.,13.923954389607,-20.06611477295));
#91 = CARTESIAN_POINT('',(260.,14.979369763629,-19.19138198249));
#92 = CARTESIAN_POINT('',(260.,15.904345471623,-18.19250430826));
#93 = CARTESIAN_POINT('',(260.,16.701930387225,-17.06425394376));
#94 = CARTESIAN_POINT('',(260.,17.374034719228,-15.79745557803));
#95 = CARTESIAN_POINT('',(260.,17.922065504041,-14.37513471276));
#96 = CARTESIAN_POINT('',(260.,18.347194056845,-12.76382589244));
#97 = CARTESIAN_POINT('',(260.,18.650959364148,-10.88458683614));
#98 = CARTESIAN_POINT('',(260.,18.849875984768,-8.27165055697));
#99 = CARTESIAN_POINT('',(260.,18.851358421347,-6.260247050377));
#100 = CARTESIAN_POINT('',(260.,18.848641578653,-3.739752949623));
#101 = VECTOR('',#102,1.);
#102 = DIRECTION('',(-1.,-0.,-0.));
#103 = DEFINITIONAL_REPRESENTATION('',(#104),#108);
#104 = LINE('',#105,#106);
#105 = CARTESIAN_POINT('',(0.,0.));
#106 = VECTOR('',#107,1.);
#107 = DIRECTION('',(0.,-1.));
#108 = ( GEOMETRIC_REPRESENTATION_CONTEXT(2) 
PARAMETRIC_REPRESENTATION_CONTEXT() REPRESENTATION_CONTEXT('2D SPACE',''
  ) );
#109 = PCURVE('',#32,#110);
#110 = DEFINITIONAL_REPRESENTATION('',(#111),#115);
#111 = LINE('',#112,#113);
#112 = CARTESIAN_POINT('',(123.73988365562,0.));
#113 = VECTOR('',#114,1.);
#114 = DIRECTION('',(0.,-1.));
#115 = ( GEOMETRIC_REPRESENTATION_CONTEXT(2) 
PARAMETRIC_REPRESENTATION_CONTEXT() REPRESENTATION_CONTEXT('2D SPACE',''
  ) );
#116 = ORIENTED_EDGE('',*,*,#117,.T.);
#117 = EDGE_CURVE('',#24,#24,#118,.T.);
#118 = SURFACE_CURVE('',#119,(#187,#194),.PCURVE_S1.);
#119 = B_SPLINE_CURVE_WITH_KNOTS('',3,(#120,#121,#122,#123,#124,#125,
    #126,#127,#128,#129,#130,#131,#132,#133,#134,#135,#136,#137,#138,
    #139,#140,#141,#142,#143,#144,#145,#146,#147,#148,#149,#150,#151,
    #152,#153,#154,#155,#156,#157,#158,#159,#160,#161,#162,#163,#164,
    #165,#166,#167,#168,#169,#170,#171,#172,#173,#174,#175,#176,#177,
    #178,#179,#180,#181,#182,#183,#184,#185,#186),.UNSPECIFIED.,.T.,.F.,
  (1,1,2,1,1,1,1,1,1,1,1,1,1,1,1,1,1,1,1,1,1,1,1,1,1,1,1,1,1,1,1,1,1,1,1
    ,1,1,1,1,1,1,1,1,1,1,1,1,1,1,1,1,1,1,1,1,1,1,1,1,1,1,1,1,1,1,1,2,1,1
    ),(-6.012235240703,-3.795143542094,0.,3.795143542094,6.012235240703,
    7.858603427219,9.497496023393,11.002845160252,12.421271465279,
    13.788665958266,15.136303908256,16.493548163324,17.889450615925,
    19.354478051728,20.923575253183,22.642894643021,24.587556309854,
    26.927314252728,30.934970913614,34.942627575085,37.28238551796,
    39.227047184792,40.94636657463,42.515463776086,43.980491211889,
    45.376393664489,46.733637919557,48.081275869547,49.448670362534,
    50.867096667561,52.37244580442,54.011338400595,55.857706587111,
    58.074798285719,61.869941827373,65.665085369907,67.882177068516,
    69.728545255032,71.367437851207,72.872786988065,74.291213293093,
    75.65860778608,77.006245736069,78.363489991137,79.759392443738,
    81.224419879541,82.793517080996,84.512836470835,86.457498137667,
    88.797256080542,92.804912741111,96.812569402898,99.152327345773,
    101.0969890126,102.81630840244,104.38540560389,105.8504330397,
    107.2463354923,108.60357974737,109.95121769736,111.31861219034,
    112.73703849537,114.24238763223,115.8812802284,117.72764841492,
    119.94474011353,123.73988365562,127.53502719772,129.75211889632),
  .UNSPECIFIED.);
#120 = CARTESIAN_POINT('',(265.,18.851358421347,-6.260247050377));
#121 = CARTESIAN_POINT('',(265.,18.848641578653,-3.739752949623));
#122 = CARTESIAN_POINT('',(265.,18.850603354909,-1.72834944303));
#123 = CARTESIAN_POINT('',(265.,18.650837100787,0.884586836141));
#124 = CARTESIAN_POINT('',(265.,18.347220561514,2.763825892449));
#125 = CARTESIAN_POINT('',(265.,17.922059360766,4.37513471276));
#126 = CARTESIAN_POINT('',(265.,17.37403620578,5.797455578036));
#127 = CARTESIAN_POINT('',(265.,16.701930014339,7.064253943764));
#128 = CARTESIAN_POINT('',(265.,15.904345568372,8.192504308264));
#129 = CARTESIAN_POINT('',(265.,14.979369737688,9.191381982497));
#130 = CARTESIAN_POINT('',(265.,13.923954396787,10.066114772955));
#131 = CARTESIAN_POINT('',(265.,12.732724986653,10.81990500508));
#132 = CARTESIAN_POINT('',(265.,11.395890681056,11.454910386924));
#133 = CARTESIAN_POINT('',(265.,9.89529261755,11.972700808018));
#134 = CARTESIAN_POINT('',(265.,8.19520234252,12.37450236143));
#135 = CARTESIAN_POINT('',(265.,6.212462576384,12.661642842466));
#136 = CARTESIAN_POINT('',(265.,3.452642780653,12.850233178243));
#137 = CARTESIAN_POINT('',(265.,9.594252043469E-11,12.849852774967));
#138 = CARTESIAN_POINT('',(265.,-3.452642780453,12.850233178236));
#139 = CARTESIAN_POINT('',(265.,-6.212462576394,12.661642842504));
#140 = CARTESIAN_POINT('',(265.,-8.195202342491,12.374502361318));
#141 = CARTESIAN_POINT('',(265.,-9.895292617641,11.972700808371));
#142 = CARTESIAN_POINT('',(265.,-11.39589068075,11.454910385763));
#143 = CARTESIAN_POINT('',(265.,-12.73272498767,10.819905009029));
#144 = CARTESIAN_POINT('',(265.,-13.92395439319,10.066114759119));
#145 = CARTESIAN_POINT('',(265.,-14.97936975065,9.191382032485));
#146 = CARTESIAN_POINT('',(265.,-15.90434551999,8.192504121832));
#147 = CARTESIAN_POINT('',(265.,-16.70193020078,7.0642546623));
#148 = CARTESIAN_POINT('',(265.,-17.3740354625,5.797452713514));
#149 = CARTESIAN_POINT('',(265.,-17.9220624324,4.375146550588));
#150 = CARTESIAN_POINT('',(265.,-18.34720730917,2.763774819079));
#151 = CARTESIAN_POINT('',(265.,-18.65089823246,0.884822432434));
#152 = CARTESIAN_POINT('',(265.,-18.85023966982,-1.729751054191));
#153 = CARTESIAN_POINT('',(265.,-18.8498487116,-4.999999999853));
#154 = CARTESIAN_POINT('',(265.,-18.85023966984,-8.270248945516));
#155 = CARTESIAN_POINT('',(265.,-18.65089823246,-10.88482243243));
#156 = CARTESIAN_POINT('',(265.,-18.34720730917,-12.76377481907));
#157 = CARTESIAN_POINT('',(265.,-17.9220624324,-14.37514655058));
#158 = CARTESIAN_POINT('',(265.,-17.3740354625,-15.79745271351));
#159 = CARTESIAN_POINT('',(265.,-16.70193020078,-17.0642546623));
#160 = CARTESIAN_POINT('',(265.,-15.90434551999,-18.19250412183));
#161 = CARTESIAN_POINT('',(265.,-14.97936975065,-19.19138203248));
#162 = CARTESIAN_POINT('',(265.,-13.92395439319,-20.06611475911));
#163 = CARTESIAN_POINT('',(265.,-12.73272498767,-20.81990500902));
#164 = CARTESIAN_POINT('',(265.,-11.39589068075,-21.45491038576));
#165 = CARTESIAN_POINT('',(265.,-9.895292617641,-21.97270080837));
#166 = CARTESIAN_POINT('',(265.,-8.195202342491,-22.37450236131));
#167 = CARTESIAN_POINT('',(265.,-6.212462576394,-22.6616428425));
#168 = CARTESIAN_POINT('',(265.,-3.452642780754,-22.85023317821));
#169 = CARTESIAN_POINT('',(265.,-2.014186141824E-10,-22.84985277496));
#170 = CARTESIAN_POINT('',(265.,3.452642780343,-22.85023317826));
#171 = CARTESIAN_POINT('',(265.,6.212462576404,-22.66164284246));
#172 = CARTESIAN_POINT('',(265.,8.195202342462,-22.37450236143));
#173 = CARTESIAN_POINT('',(265.,9.895292617733,-21.97270080801));
#174 = CARTESIAN_POINT('',(265.,11.395890680454,-21.45491038692));
#175 = CARTESIAN_POINT('',(265.,12.732724988702,-20.81990500508));
#176 = CARTESIAN_POINT('',(265.,13.923954389607,-20.06611477295));
#177 = CARTESIAN_POINT('',(265.,14.979369763629,-19.19138198249));
#178 = CARTESIAN_POINT('',(265.,15.904345471623,-18.19250430826));
#179 = CARTESIAN_POINT('',(265.,16.701930387225,-17.06425394376));
#180 = CARTESIAN_POINT('',(265.,17.374034719228,-15.79745557803));
#181 = CARTESIAN_POINT('',(265.,17.922065504041,-14.37513471276));
#182 = CARTESIAN_POINT('',(265.,18.347194056845,-12.76382589244));
#183 = CARTESIAN_POINT('',(265.,18.650959364148,-10.88458683614));
#184 = CARTESIAN_POINT('',(265.,18.849875984768,-8.27165055697));
#185 = CARTESIAN_POINT('',(265.,18.851358421347,-6.260247050377));
#186 = CARTESIAN_POINT('',(265.,18.848641578653,-3.739752949623));
#187 = PCURVE('',#32,#188);
#188 = DEFINITIONAL_REPRESENTATION('',(#189),#193);
#189 = LINE('',#190,#191);
#190 = CARTESIAN_POINT('',(0.,-5.));
#191 = VECTOR('',#192,1.);
#192 = DIRECTION('',(1.,0.));
#193 = ( GEOMETRIC_REPRESENTATION_CONTEXT(2) 
PARAMETRIC_REPRESENTATION_CONTEXT() REPRESENTATION_CONTEXT('2D SPACE',''
  ) );
#194 = PCURVE('',#195,#200);
#195 = PLANE('',#196);
#196 = AXIS2_PLACEMENT_3D('',#197,#198,#199);
#197 = CARTESIAN_POINT('',(265.,-8.096333308505E-07,-5.000000532046));
#198 = DIRECTION('',(1.,-2.625362160967E-16,2.60378637752E-16));
#199 = DIRECTION('',(2.625362160967E-16,1.,0.));
#200 = DEFINITIONAL_REPRESENTATION('',(#201),#269);
#201 = B_SPLINE_CURVE_WITH_KNOTS('',3,(#202,#203,#204,#205,#206,#207,
    #208,#209,#210,#211,#212,#213,#214,#215,#216,#217,#218,#219,#220,
    #221,#222,#223,#224,#225,#226,#227,#228,#229,#230,#231,#232,#233,
    #234,#235,#236,#237,#238,#239,#240,#241,#242,#243,#244,#245,#246,
    #247,#248,#249,#250,#251,#252,#253,#254,#255,#256,#257,#258,#259,
    #260,#261,#262,#263,#264,#265,#266,#267,#268),.UNSPECIFIED.,.F.,.F.,
  (1,1,2,1,1,1,1,1,1,1,1,1,1,1,1,1,1,1,1,1,1,1,1,1,1,1,1,1,1,1,1,1,1,1,1
    ,1,1,1,1,1,1,1,1,1,1,1,1,1,1,1,1,1,1,1,1,1,1,1,1,1,1,1,1,1,1,1,2,1,1
    ),(-6.012235240703,-3.795143542094,0.,3.795143542094,6.012235240703,
    7.858603427219,9.497496023393,11.002845160252,12.421271465279,
    13.788665958266,15.136303908256,16.493548163324,17.889450615925,
    19.354478051728,20.923575253183,22.642894643021,24.587556309854,
    26.927314252728,30.934970913614,34.942627575085,37.28238551796,
    39.227047184792,40.94636657463,42.515463776086,43.980491211889,
    45.376393664489,46.733637919557,48.081275869547,49.448670362534,
    50.867096667561,52.37244580442,54.011338400595,55.857706587111,
    58.074798285719,61.869941827373,65.665085369907,67.882177068516,
    69.728545255032,71.367437851207,72.872786988065,74.291213293093,
    75.65860778608,77.006245736069,78.363489991137,79.759392443738,
    81.224419879541,82.793517080996,84.512836470835,86.457498137667,
    88.797256080542,92.804912741111,96.812569402898,99.152327345773,
    101.0969890126,102.81630840244,104.38540560389,105.8504330397,
    107.2463354923,108.60357974737,109.95121769736,111.31861219034,
    112.73703849537,114.24238763223,115.8812802284,117.72764841492,
    119.94474011353,123.73988365562,127.53502719772,129.75211889632),
  .UNSPECIFIED.);
#202 = CARTESIAN_POINT('',(18.85135923098,-1.260246518331));
#203 = CARTESIAN_POINT('',(18.848642388286,1.260247582423));
#204 = CARTESIAN_POINT('',(18.850604164542,3.271651089017));
#205 = CARTESIAN_POINT('',(18.65083791042,5.884587368187));
#206 = CARTESIAN_POINT('',(18.347221371147,7.763826424495));
#207 = CARTESIAN_POINT('',(17.9220601704,9.375135244806));
#208 = CARTESIAN_POINT('',(17.374037015413,10.797456110082));
#209 = CARTESIAN_POINT('',(16.701930823972,12.06425447581));
#210 = CARTESIAN_POINT('',(15.904346378005,13.192504840311));
#211 = CARTESIAN_POINT('',(14.979370547321,14.191382514543));
#212 = CARTESIAN_POINT('',(13.923955206421,15.066115305002));
#213 = CARTESIAN_POINT('',(12.732725796286,15.819905537127));
#214 = CARTESIAN_POINT('',(11.39589149069,16.454910918971));
#215 = CARTESIAN_POINT('',(9.895293427183,16.972701340064));
#216 = CARTESIAN_POINT('',(8.195203152154,17.374502893476));
#217 = CARTESIAN_POINT('',(6.212463386018,17.661643374513));
#218 = CARTESIAN_POINT('',(3.452643590287,17.850233710289));
#219 = CARTESIAN_POINT('',(8.097292733709E-07,17.849853307013));
#220 = CARTESIAN_POINT('',(-3.45264197082,17.850233710282));
#221 = CARTESIAN_POINT('',(-6.212461766761,17.661643374551));
#222 = CARTESIAN_POINT('',(-8.195201532858,17.374502893364));
#223 = CARTESIAN_POINT('',(-9.895291808008,16.972701340417));
#224 = CARTESIAN_POINT('',(-11.39588987112,16.454910917809));
#225 = CARTESIAN_POINT('',(-12.73272417804,15.819905541075));
#226 = CARTESIAN_POINT('',(-13.92395358356,15.066115291165));
#227 = CARTESIAN_POINT('',(-14.97936894102,14.191382564531));
#228 = CARTESIAN_POINT('',(-15.90434471036,13.192504653878));
#229 = CARTESIAN_POINT('',(-16.70192939114,12.064255194346));
#230 = CARTESIAN_POINT('',(-17.37403465287,10.797453245561));
#231 = CARTESIAN_POINT('',(-17.92206162277,9.375147082635));
#232 = CARTESIAN_POINT('',(-18.34720649954,7.763775351125));
#233 = CARTESIAN_POINT('',(-18.65089742283,5.88482296448));
#234 = CARTESIAN_POINT('',(-18.85023886019,3.270249477855));
#235 = CARTESIAN_POINT('',(-18.84984790196,5.321930807156E-07));
#236 = CARTESIAN_POINT('',(-18.85023886021,-3.27024841347));
#237 = CARTESIAN_POINT('',(-18.65089742283,-5.884821900388));
#238 = CARTESIAN_POINT('',(-18.34720649954,-7.763774287033));
#239 = CARTESIAN_POINT('',(-17.92206162277,-9.375146018542));
#240 = CARTESIAN_POINT('',(-17.37403465287,-10.79745218146));
#241 = CARTESIAN_POINT('',(-16.70192939114,-12.06425413025));
#242 = CARTESIAN_POINT('',(-15.90434471036,-13.19250358978));
#243 = CARTESIAN_POINT('',(-14.97936894102,-14.19138150043));
#244 = CARTESIAN_POINT('',(-13.92395358356,-15.06611422707));
#245 = CARTESIAN_POINT('',(-12.73272417804,-15.81990447698));
#246 = CARTESIAN_POINT('',(-11.39588987112,-16.45490985371));
#247 = CARTESIAN_POINT('',(-9.895291808008,-16.97270027632));
#248 = CARTESIAN_POINT('',(-8.195201532858,-17.37450182927));
#249 = CARTESIAN_POINT('',(-6.212461766761,-17.66164231045));
#250 = CARTESIAN_POINT('',(-3.45264197112,-17.85023264617));
#251 = CARTESIAN_POINT('',(8.094319122363E-07,-17.84985224292));
#252 = CARTESIAN_POINT('',(3.452643589976,-17.85023264621));
#253 = CARTESIAN_POINT('',(6.212463386038,-17.66164231042));
#254 = CARTESIAN_POINT('',(8.195203152096,-17.37450182938));
#255 = CARTESIAN_POINT('',(9.895293427366,-16.97270027597));
#256 = CARTESIAN_POINT('',(11.395891490087,-16.45490985487));
#257 = CARTESIAN_POINT('',(12.732725798335,-15.81990447303));
#258 = CARTESIAN_POINT('',(13.92395519924,-15.0661142409));
#259 = CARTESIAN_POINT('',(14.979370573263,-14.19138145045));
#260 = CARTESIAN_POINT('',(15.904346281256,-13.19250377621));
#261 = CARTESIAN_POINT('',(16.701931196859,-12.06425341171));
#262 = CARTESIAN_POINT('',(17.374035528862,-10.79745504599));
#263 = CARTESIAN_POINT('',(17.922066313674,-9.375134180713));
#264 = CARTESIAN_POINT('',(18.347194866478,-7.763825360403));
#265 = CARTESIAN_POINT('',(18.650960173781,-5.884586304094));
#266 = CARTESIAN_POINT('',(18.849876794402,-3.271650024924));
#267 = CARTESIAN_POINT('',(18.85135923098,-1.260246518331));
#268 = CARTESIAN_POINT('',(18.848642388286,1.260247582423));
#269 = ( GEOMETRIC_REPRESENTATION_CONTEXT(2) 
PARAMETRIC_REPRESENTATION_CONTEXT() REPRESENTATION_CONTEXT('2D SPACE',''
  ) );
#270 = ORIENTED_EDGE('',*,*,#21,.F.);
#271 = ORIENTED_EDGE('',*,*,#272,.F.);
#272 = EDGE_CURVE('',#22,#22,#273,.T.);
#273 = SURFACE_CURVE('',#274,(#342,#349),.PCURVE_S1.);
#274 = B_SPLINE_CURVE_WITH_KNOTS('',3,(#275,#276,#277,#278,#279,#280,
    #281,#282,#283,#284,#285,#286,#287,#288,#289,#290,#291,#292,#293,
    #294,#295,#296,#297,#298,#299,#300,#301,#302,#303,#304,#305,#306,
    #307,#308,#309,#310,#311,#312,#313,#314,#315,#316,#317,#318,#319,
    #320,#321,#322,#323,#324,#325,#326,#327,#328,#329,#330,#331,#332,
    #333,#334,#335,#336,#337,#338,#339,#340,#341),.UNSPECIFIED.,.T.,.F.,
  (1,1,2,1,1,1,1,1,1,1,1,1,1,1,1,1,1,1,1,1,1,1,1,1,1,1,1,1,1,1,1,1,1,1,1
    ,1,1,1,1,1,1,1,1,1,1,1,1,1,1,1,1,1,1,1,1,1,1,1,1,1,1,1,1,1,1,1,2,1,1
    ),(-6.012235240703,-3.795143542094,0.,3.795143542094,6.012235240703,
    7.858603427219,9.497496023393,11.002845160252,12.421271465279,
    13.788665958266,15.136303908256,16.493548163324,17.889450615925,
    19.354478051728,20.923575253183,22.642894643021,24.587556309854,
    26.927314252728,30.934970913614,34.942627575085,37.28238551796,
    39.227047184792,40.94636657463,42.515463776086,43.980491211889,
    45.376393664489,46.733637919557,48.081275869547,49.448670362534,
    50.867096667561,52.37244580442,54.011338400595,55.857706587111,
    58.074798285719,61.869941827373,65.665085369907,67.882177068516,
    69.728545255032,71.367437851207,72.872786988065,74.291213293093,
    75.65860778608,77.006245736069,78.363489991137,79.759392443738,
    81.224419879541,82.793517080996,84.512836470835,86.457498137667,
    88.797256080542,92.804912741111,96.812569402898,99.152327345773,
    101.0969890126,102.81630840244,104.38540560389,105.8504330397,
    107.2463354923,108.60357974737,109.95121769736,111.31861219034,
    112.73703849537,114.24238763223,115.8812802284,117.72764841492,
    119.94474011353,123.73988365562,127.53502719772,129.75211889632),
  .UNSPECIFIED.);
#275 = CARTESIAN_POINT('',(260.,18.851358421347,-6.260247050377));
#276 = CARTESIAN_POINT('',(260.,18.848641578653,-3.739752949623));
#277 = CARTESIAN_POINT('',(260.,18.850603354909,-1.72834944303));
#278 = CARTESIAN_POINT('',(260.,18.650837100787,0.884586836141));
#279 = CARTESIAN_POINT('',(260.,18.347220561514,2.763825892449));
#280 = CARTESIAN_POINT('',(260.,17.922059360766,4.37513471276));
#281 = CARTESIAN_POINT('',(260.,17.37403620578,5.797455578036));
#282 = CARTESIAN_POINT('',(260.,16.701930014339,7.064253943764));
#283 = CARTESIAN_POINT('',(260.,15.904345568372,8.192504308264));
#284 = CARTESIAN_POINT('',(260.,14.979369737688,9.191381982497));
#285 = CARTESIAN_POINT('',(260.,13.923954396787,10.066114772955));
#286 = CARTESIAN_POINT('',(260.,12.732724986653,10.81990500508));
#287 = CARTESIAN_POINT('',(260.,11.395890681056,11.454910386924));
#288 = CARTESIAN_POINT('',(260.,9.89529261755,11.972700808018));
#289 = CARTESIAN_POINT('',(260.,8.19520234252,12.37450236143));
#290 = CARTESIAN_POINT('',(260.,6.212462576384,12.661642842466));
#291 = CARTESIAN_POINT('',(260.,3.452642780653,12.850233178243));
#292 = CARTESIAN_POINT('',(260.,9.594252043469E-11,12.849852774967));
#293 = CARTESIAN_POINT('',(260.,-3.452642780453,12.850233178236));
#294 = CARTESIAN_POINT('',(260.,-6.212462576394,12.661642842504));
#295 = CARTESIAN_POINT('',(260.,-8.195202342491,12.374502361318));
#296 = CARTESIAN_POINT('',(260.,-9.895292617641,11.972700808371));
#297 = CARTESIAN_POINT('',(260.,-11.39589068075,11.454910385763));
#298 = CARTESIAN_POINT('',(260.,-12.73272498767,10.819905009029));
#299 = CARTESIAN_POINT('',(260.,-13.92395439319,10.066114759119));
#300 = CARTESIAN_POINT('',(260.,-14.97936975065,9.191382032485));
#301 = CARTESIAN_POINT('',(260.,-15.90434551999,8.192504121832));
#302 = CARTESIAN_POINT('',(260.,-16.70193020078,7.0642546623));
#303 = CARTESIAN_POINT('',(260.,-17.3740354625,5.797452713514));
#304 = CARTESIAN_POINT('',(260.,-17.9220624324,4.375146550588));
#305 = CARTESIAN_POINT('',(260.,-18.34720730917,2.763774819079));
#306 = CARTESIAN_POINT('',(260.,-18.65089823246,0.884822432434));
#307 = CARTESIAN_POINT('',(260.,-18.85023966982,-1.729751054191));
#308 = CARTESIAN_POINT('',(260.,-18.8498487116,-4.999999999853));
#309 = CARTESIAN_POINT('',(260.,-18.85023966984,-8.270248945516));
#310 = CARTESIAN_POINT('',(260.,-18.65089823246,-10.88482243243));
#311 = CARTESIAN_POINT('',(260.,-18.34720730917,-12.76377481907));
#312 = CARTESIAN_POINT('',(260.,-17.9220624324,-14.37514655058));
#313 = CARTESIAN_POINT('',(260.,-17.3740354625,-15.79745271351));
#314 = CARTESIAN_POINT('',(260.,-16.70193020078,-17.0642546623));
#315 = CARTESIAN_POINT('',(260.,-15.90434551999,-18.19250412183));
#316 = CARTESIAN_POINT('',(260.,-14.97936975065,-19.19138203248));
#317 = CARTESIAN_POINT('',(260.,-13.92395439319,-20.06611475911));
#318 = CARTESIAN_POINT('',(260.,-12.73272498767,-20.81990500902));
#319 = CARTESIAN_POINT('',(260.,-11.39589068075,-21.45491038576));
#320 = CARTESIAN_POINT('',(260.,-9.895292617641,-21.97270080837));
#321 = CARTESIAN_POINT('',(260.,-8.195202342491,-22.37450236131));
#322 = CARTESIAN_POINT('',(260.,-6.212462576394,-22.6616428425));
#323 = CARTESIAN_POINT('',(260.,-3.452642780754,-22.85023317821));
#324 = CARTESIAN_POINT('',(260.,-2.014186141824E-10,-22.84985277496));
#325 = CARTESIAN_POINT('',(260.,3.452642780343,-22.85023317826));
#326 = CARTESIAN_POINT('',(260.,6.212462576404,-22.66164284246));
#327 = CARTESIAN_POINT('',(260.,8.195202342462,-22.37450236143));
#328 = CARTESIAN_POINT('',(260.,9.895292617733,-21.97270080801));
#329 = CARTESIAN_POINT('',(260.,11.395890680454,-21.45491038692));
#330 = CARTESIAN_POINT('',(260.,12.732724988702,-20.81990500508));
#331 = CARTESIAN_POINT('',(260.,13.923954389607,-20.06611477295));
#332 = CARTESIAN_POINT('',(260.,14.979369763629,-19.19138198249));
#333 = CARTESIAN_POINT('',(260.,15.904345471623,-18.19250430826));
#334 = CARTESIAN_POINT('',(260.,16.701930387225,-17.06425394376));
#335 = CARTESIAN_POINT('',(260.,17.374034719228,-15.79745557803));
#336 = CARTESIAN_POINT('',(260.,17.922065504041,-14.37513471276));
#337 = CARTESIAN_POINT('',(260.,18.347194056845,-12.76382589244));
#338 = CARTESIAN_POINT('',(260.,18.650959364148,-10.88458683614));
#339 = CARTESIAN_POINT('',(260.,18.849875984768,-8.27165055697));
#340 = CARTESIAN_POINT('',(260.,18.851358421347,-6.260247050377));
#341 = CARTESIAN_POINT('',(260.,18.848641578653,-3.739752949623));
#342 = PCURVE('',#32,#343);
#343 = DEFINITIONAL_REPRESENTATION('',(#344),#348);
#344 = LINE('',#345,#346);
#345 = CARTESIAN_POINT('',(0.,0.));
#346 = VECTOR('',#347,1.);
#347 = DIRECTION('',(1.,0.));
#348 = ( GEOMETRIC_REPRESENTATION_CONTEXT(2) 
PARAMETRIC_REPRESENTATION_CONTEXT() REPRESENTATION_CONTEXT('2D SPACE',''
  ) );
#349 = PCURVE('',#350,#355);
#350 = PLANE('',#351);
#351 = AXIS2_PLACEMENT_3D('',#352,#353,#354);
#352 = CARTESIAN_POINT('',(260.,-8.096333308505E-07,-5.000000532046));
#353 = DIRECTION('',(1.,-2.625362160967E-16,2.60378637752E-16));
#354 = DIRECTION('',(2.625362160967E-16,1.,0.));
#355 = DEFINITIONAL_REPRESENTATION('',(#356),#424);
#356 = B_SPLINE_CURVE_WITH_KNOTS('',3,(#357,#358,#359,#360,#361,#362,
    #363,#364,#365,#366,#367,#368,#369,#370,#371,#372,#373,#374,#375,
    #376,#377,#378,#379,#380,#381,#382,#383,#384,#385,#386,#387,#388,
    #389,#390,#391,#392,#393,#394,#395,#396,#397,#398,#399,#400,#401,
    #402,#403,#404,#405,#406,#407,#408,#409,#410,#411,#412,#413,#414,
    #415,#416,#417,#418,#419,#420,#421,#422,#423),.UNSPECIFIED.,.F.,.F.,
  (1,1,2,1,1,1,1,1,1,1,1,1,1,1,1,1,1,1,1,1,1,1,1,1,1,1,1,1,1,1,1,1,1,1,1
    ,1,1,1,1,1,1,1,1,1,1,1,1,1,1,1,1,1,1,1,1,1,1,1,1,1,1,1,1,1,1,1,2,1,1
    ),(-6.012235240703,-3.795143542094,0.,3.795143542094,6.012235240703,
    7.858603427219,9.497496023393,11.002845160252,12.421271465279,
    13.788665958266,15.136303908256,16.493548163324,17.889450615925,
    19.354478051728,20.923575253183,22.642894643021,24.587556309854,
    26.927314252728,30.934970913614,34.942627575085,37.28238551796,
    39.227047184792,40.94636657463,42.515463776086,43.980491211889,
    45.376393664489,46.733637919557,48.081275869547,49.448670362534,
    50.867096667561,52.37244580442,54.011338400595,55.857706587111,
    58.074798285719,61.869941827373,65.665085369907,67.882177068516,
    69.728545255032,71.367437851207,72.872786988065,74.291213293093,
    75.65860778608,77.006245736069,78.363489991137,79.759392443738,
    81.224419879541,82.793517080996,84.512836470835,86.457498137667,
    88.797256080542,92.804912741111,96.812569402898,99.152327345773,
    101.0969890126,102.81630840244,104.38540560389,105.8504330397,
    107.2463354923,108.60357974737,109.95121769736,111.31861219034,
    112.73703849537,114.24238763223,115.8812802284,117.72764841492,
    119.94474011353,123.73988365562,127.53502719772,129.75211889632),
  .UNSPECIFIED.);
#357 = CARTESIAN_POINT('',(18.85135923098,-1.260246518331));
#358 = CARTESIAN_POINT('',(18.848642388286,1.260247582423));
#359 = CARTESIAN_POINT('',(18.850604164542,3.271651089017));
#360 = CARTESIAN_POINT('',(18.65083791042,5.884587368187));
#361 = CARTESIAN_POINT('',(18.347221371147,7.763826424495));
#362 = CARTESIAN_POINT('',(17.9220601704,9.375135244806));
#363 = CARTESIAN_POINT('',(17.374037015413,10.797456110082));
#364 = CARTESIAN_POINT('',(16.701930823972,12.06425447581));
#365 = CARTESIAN_POINT('',(15.904346378005,13.192504840311));
#366 = CARTESIAN_POINT('',(14.979370547321,14.191382514543));
#367 = CARTESIAN_POINT('',(13.923955206421,15.066115305002));
#368 = CARTESIAN_POINT('',(12.732725796286,15.819905537127));
#369 = CARTESIAN_POINT('',(11.39589149069,16.454910918971));
#370 = CARTESIAN_POINT('',(9.895293427183,16.972701340064));
#371 = CARTESIAN_POINT('',(8.195203152154,17.374502893476));
#372 = CARTESIAN_POINT('',(6.212463386018,17.661643374513));
#373 = CARTESIAN_POINT('',(3.452643590287,17.850233710289));
#374 = CARTESIAN_POINT('',(8.097292733709E-07,17.849853307013));
#375 = CARTESIAN_POINT('',(-3.45264197082,17.850233710282));
#376 = CARTESIAN_POINT('',(-6.212461766761,17.661643374551));
#377 = CARTESIAN_POINT('',(-8.195201532858,17.374502893364));
#378 = CARTESIAN_POINT('',(-9.895291808008,16.972701340417));
#379 = CARTESIAN_POINT('',(-11.39588987112,16.454910917809));
#380 = CARTESIAN_POINT('',(-12.73272417804,15.819905541075));
#381 = CARTESIAN_POINT('',(-13.92395358356,15.066115291165));
#382 = CARTESIAN_POINT('',(-14.97936894102,14.191382564531));
#383 = CARTESIAN_POINT('',(-15.90434471036,13.192504653878));
#384 = CARTESIAN_POINT('',(-16.70192939114,12.064255194346));
#385 = CARTESIAN_POINT('',(-17.37403465287,10.797453245561));
#386 = CARTESIAN_POINT('',(-17.92206162277,9.375147082635));
#387 = CARTESIAN_POINT('',(-18.34720649954,7.763775351125));
#388 = CARTESIAN_POINT('',(-18.65089742283,5.88482296448));
#389 = CARTESIAN_POINT('',(-18.85023886019,3.270249477855));
#390 = CARTESIAN_POINT('',(-18.84984790196,5.321930807156E-07));
#391 = CARTESIAN_POINT('',(-18.85023886021,-3.27024841347));
#392 = CARTESIAN_POINT('',(-18.65089742283,-5.884821900388));
#393 = CARTESIAN_POINT('',(-18.34720649954,-7.763774287033));
#394 = CARTESIAN_POINT('',(-17.92206162277,-9.375146018542));
#395 = CARTESIAN_POINT('',(-17.37403465287,-10.79745218146));
#396 = CARTESIAN_POINT('',(-16.70192939114,-12.06425413025));
#397 = CARTESIAN_POINT('',(-15.90434471036,-13.19250358978));
#398 = CARTESIAN_POINT('',(-14.97936894102,-14.19138150043));
#399 = CARTESIAN_POINT('',(-13.92395358356,-15.06611422707));
#400 = CARTESIAN_POINT('',(-12.73272417804,-15.81990447698));
#401 = CARTESIAN_POINT('',(-11.39588987112,-16.45490985371));
#402 = CARTESIAN_POINT('',(-9.895291808008,-16.97270027632));
#403 = CARTESIAN_POINT('',(-8.195201532858,-17.37450182927));
#404 = CARTESIAN_POINT('',(-6.212461766761,-17.66164231045));
#405 = CARTESIAN_POINT('',(-3.45264197112,-17.85023264617));
#406 = CARTESIAN_POINT('',(8.094319122363E-07,-17.84985224292));
#407 = CARTESIAN_POINT('',(3.452643589976,-17.85023264621));
#408 = CARTESIAN_POINT('',(6.212463386038,-17.66164231042));
#409 = CARTESIAN_POINT('',(8.195203152096,-17.37450182938));
#410 = CARTESIAN_POINT('',(9.895293427366,-16.97270027597));
#411 = CARTESIAN_POINT('',(11.395891490087,-16.45490985487));
#412 = CARTESIAN_POINT('',(12.732725798335,-15.81990447303));
#413 = CARTESIAN_POINT('',(13.92395519924,-15.0661142409));
#414 = CARTESIAN_POINT('',(14.979370573263,-14.19138145045));
#415 = CARTESIAN_POINT('',(15.904346281256,-13.19250377621));
#416 = CARTESIAN_POINT('',(16.701931196859,-12.06425341171));
#417 = CARTESIAN_POINT('',(17.374035528862,-10.79745504599));
#418 = CARTESIAN_POINT('',(17.922066313674,-9.375134180713));
#419 = CARTESIAN_POINT('',(18.347194866478,-7.763825360403));
#420 = CARTESIAN_POINT('',(18.650960173781,-5.884586304094));
#421 = CARTESIAN_POINT('',(18.849876794402,-3.271650024924));
#422 = CARTESIAN_POINT('',(18.85135923098,-1.260246518331));
#423 = CARTESIAN_POINT('',(18.848642388286,1.260247582423));
#424 = ( GEOMETRIC_REPRESENTATION_CONTEXT(2) 
PARAMETRIC_REPRESENTATION_CONTEXT() REPRESENTATION_CONTEXT('2D SPACE',''
  ) );
#425 = ADVANCED_FACE('',(#426,#429,#464,#499,#534,#569),#350,.F.);
#426 = FACE_BOUND('',#427,.F.);
#427 = EDGE_LOOP('',(#428));
#428 = ORIENTED_EDGE('',*,*,#272,.T.);
#429 = FACE_BOUND('',#430,.F.);
#430 = EDGE_LOOP('',(#431));
#431 = ORIENTED_EDGE('',*,*,#432,.T.);
#432 = EDGE_CURVE('',#433,#433,#435,.T.);
#433 = VERTEX_POINT('',#434);
#434 = CARTESIAN_POINT('',(260.,-7.8,-13.5));
#435 = SURFACE_CURVE('',#436,(#441,#452),.PCURVE_S1.);
#436 = CIRCLE('',#437,1.7);
#437 = AXIS2_PLACEMENT_3D('',#438,#439,#440);
#438 = CARTESIAN_POINT('',(260.,-9.5,-13.5));
#439 = DIRECTION('',(-1.,0.,0.));
#440 = DIRECTION('',(0.,1.,0.));
#441 = PCURVE('',#350,#442);
#442 = DEFINITIONAL_REPRESENTATION('',(#443),#451);
#443 = ( BOUNDED_CURVE() B_SPLINE_CURVE(2,(#444,#445,#446,#447,#448,#449
,#450),.UNSPECIFIED.,.T.,.F.) B_SPLINE_CURVE_WITH_KNOTS((1,2,2,2,2,1),(
    -2.094395102393,0.,2.094395102393,4.188790204786,6.28318530718,
8.377580409573),.UNSPECIFIED.) CURVE() GEOMETRIC_REPRESENTATION_ITEM() 
RATIONAL_B_SPLINE_CURVE((1.,0.5,1.,0.5,1.,0.5,1.)) REPRESENTATION_ITEM(
  '') );
#444 = CARTESIAN_POINT('',(-7.799999190367,-8.499999467954));
#445 = CARTESIAN_POINT('',(-7.799999190367,-11.44448584082));
#446 = CARTESIAN_POINT('',(-10.34999919036,-9.972242654387));
#447 = CARTESIAN_POINT('',(-12.89999919036,-8.499999467954));
#448 = CARTESIAN_POINT('',(-10.34999919036,-7.02775628152));
#449 = CARTESIAN_POINT('',(-7.799999190367,-5.555513095087));
#450 = CARTESIAN_POINT('',(-7.799999190367,-8.499999467954));
#451 = ( GEOMETRIC_REPRESENTATION_CONTEXT(2) 
PARAMETRIC_REPRESENTATION_CONTEXT() REPRESENTATION_CONTEXT('2D SPACE',''
  ) );
#452 = PCURVE('',#453,#458);
#453 = CYLINDRICAL_SURFACE('',#454,1.7);
#454 = AXIS2_PLACEMENT_3D('',#455,#456,#457);
#455 = CARTESIAN_POINT('',(255.,-9.5,-13.5));
#456 = DIRECTION('',(-1.,-0.,-0.));
#457 = DIRECTION('',(0.,1.,0.));
#458 = DEFINITIONAL_REPRESENTATION('',(#459),#463);
#459 = LINE('',#460,#461);
#460 = CARTESIAN_POINT('',(-6.28318530718,-5.));
#461 = VECTOR('',#462,1.);
#462 = DIRECTION('',(1.,-0.));
#463 = ( GEOMETRIC_REPRESENTATION_CONTEXT(2) 
PARAMETRIC_REPRESENTATION_CONTEXT() REPRESENTATION_CONTEXT('2D SPACE',''
  ) );
#464 = FACE_BOUND('',#465,.F.);
#465 = EDGE_LOOP('',(#466));
#466 = ORIENTED_EDGE('',*,*,#467,.T.);
#467 = EDGE_CURVE('',#468,#468,#470,.T.);
#468 = VERTEX_POINT('',#469);
#469 = CARTESIAN_POINT('',(260.,11.2,-13.5));
#470 = SURFACE_CURVE('',#471,(#476,#487),.PCURVE_S1.);
#471 = CIRCLE('',#472,1.7);
#472 = AXIS2_PLACEMENT_3D('',#473,#474,#475);
#473 = CARTESIAN_POINT('',(260.,9.5,-13.5));
#474 = DIRECTION('',(-1.,0.,0.));
#475 = DIRECTION('',(0.,1.,0.));
#476 = PCURVE('',#350,#477);
#477 = DEFINITIONAL_REPRESENTATION('',(#478),#486);
#478 = ( BOUNDED_CURVE() B_SPLINE_CURVE(2,(#479,#480,#481,#482,#483,#484
,#485),.UNSPECIFIED.,.T.,.F.) B_SPLINE_CURVE_WITH_KNOTS((1,2,2,2,2,1),(
    -2.094395102393,0.,2.094395102393,4.188790204786,6.28318530718,
8.377580409573),.UNSPECIFIED.) CURVE() GEOMETRIC_REPRESENTATION_ITEM() 
RATIONAL_B_SPLINE_CURVE((1.,0.5,1.,0.5,1.,0.5,1.)) REPRESENTATION_ITEM(
  '') );
#479 = CARTESIAN_POINT('',(11.200000809633,-8.499999467954));
#480 = CARTESIAN_POINT('',(11.200000809633,-11.44448584082));
#481 = CARTESIAN_POINT('',(8.650000809633,-9.972242654387));
#482 = CARTESIAN_POINT('',(6.100000809633,-8.499999467954));
#483 = CARTESIAN_POINT('',(8.650000809633,-7.02775628152));
#484 = CARTESIAN_POINT('',(11.200000809633,-5.555513095087));
#485 = CARTESIAN_POINT('',(11.200000809633,-8.499999467954));
#486 = ( GEOMETRIC_REPRESENTATION_CONTEXT(2) 
PARAMETRIC_REPRESENTATION_CONTEXT() REPRESENTATION_CONTEXT('2D SPACE',''
  ) );
#487 = PCURVE('',#488,#493);
#488 = CYLINDRICAL_SURFACE('',#489,1.7);
#489 = AXIS2_PLACEMENT_3D('',#490,#491,#492);
#490 = CARTESIAN_POINT('',(255.,9.5,-13.5));
#491 = DIRECTION('',(-1.,-0.,-0.));
#492 = DIRECTION('',(0.,1.,0.));
#493 = DEFINITIONAL_REPRESENTATION('',(#494),#498);
#494 = LINE('',#495,#496);
#495 = CARTESIAN_POINT('',(-6.28318530718,-5.));
#496 = VECTOR('',#497,1.);
#497 = DIRECTION('',(1.,-0.));
#498 = ( GEOMETRIC_REPRESENTATION_CONTEXT(2) 
PARAMETRIC_REPRESENTATION_CONTEXT() REPRESENTATION_CONTEXT('2D SPACE',''
  ) );
#499 = FACE_BOUND('',#500,.F.);
#500 = EDGE_LOOP('',(#501));
#501 = ORIENTED_EDGE('',*,*,#502,.T.);
#502 = EDGE_CURVE('',#503,#503,#505,.T.);
#503 = VERTEX_POINT('',#504);
#504 = CARTESIAN_POINT('',(260.,-7.8,5.5));
#505 = SURFACE_CURVE('',#506,(#511,#522),.PCURVE_S1.);
#506 = CIRCLE('',#507,1.7);
#507 = AXIS2_PLACEMENT_3D('',#508,#509,#510);
#508 = CARTESIAN_POINT('',(260.,-9.5,5.5));
#509 = DIRECTION('',(-1.,0.,0.));
#510 = DIRECTION('',(0.,1.,0.));
#511 = PCURVE('',#350,#512);
#512 = DEFINITIONAL_REPRESENTATION('',(#513),#521);
#513 = ( BOUNDED_CURVE() B_SPLINE_CURVE(2,(#514,#515,#516,#517,#518,#519
,#520),.UNSPECIFIED.,.T.,.F.) B_SPLINE_CURVE_WITH_KNOTS((1,2,2,2,2,1),(
    -2.094395102393,0.,2.094395102393,4.188790204786,6.28318530718,
8.377580409573),.UNSPECIFIED.) CURVE() GEOMETRIC_REPRESENTATION_ITEM() 
RATIONAL_B_SPLINE_CURVE((1.,0.5,1.,0.5,1.,0.5,1.)) REPRESENTATION_ITEM(
  '') );
#514 = CARTESIAN_POINT('',(-7.799999190367,10.500000532046));
#515 = CARTESIAN_POINT('',(-7.799999190367,7.555514159179));
#516 = CARTESIAN_POINT('',(-10.34999919036,9.027757345613));
#517 = CARTESIAN_POINT('',(-12.89999919036,10.500000532046));
#518 = CARTESIAN_POINT('',(-10.34999919036,11.97224371848));
#519 = CARTESIAN_POINT('',(-7.799999190367,13.444486904913));
#520 = CARTESIAN_POINT('',(-7.799999190367,10.500000532046));
#521 = ( GEOMETRIC_REPRESENTATION_CONTEXT(2) 
PARAMETRIC_REPRESENTATION_CONTEXT() REPRESENTATION_CONTEXT('2D SPACE',''
  ) );
#522 = PCURVE('',#523,#528);
#523 = CYLINDRICAL_SURFACE('',#524,1.7);
#524 = AXIS2_PLACEMENT_3D('',#525,#526,#527);
#525 = CARTESIAN_POINT('',(255.,-9.5,5.5));
#526 = DIRECTION('',(-1.,-0.,-0.));
#527 = DIRECTION('',(0.,1.,0.));
#528 = DEFINITIONAL_REPRESENTATION('',(#529),#533);
#529 = LINE('',#530,#531);
#530 = CARTESIAN_POINT('',(-6.28318530718,-5.));
#531 = VECTOR('',#532,1.);
#532 = DIRECTION('',(1.,-0.));
#533 = ( GEOMETRIC_REPRESENTATION_CONTEXT(2) 
PARAMETRIC_REPRESENTATION_CONTEXT() REPRESENTATION_CONTEXT('2D SPACE',''
  ) );
#534 = FACE_BOUND('',#535,.F.);
#535 = EDGE_LOOP('',(#536));
#536 = ORIENTED_EDGE('',*,*,#537,.T.);
#537 = EDGE_CURVE('',#538,#538,#540,.T.);
#538 = VERTEX_POINT('',#539);
#539 = CARTESIAN_POINT('',(260.,5.,-4.));
#540 = SURFACE_CURVE('',#541,(#546,#557),.PCURVE_S1.);
#541 = CIRCLE('',#542,5.);
#542 = AXIS2_PLACEMENT_3D('',#543,#544,#545);
#543 = CARTESIAN_POINT('',(260.,0.,-4.));
#544 = DIRECTION('',(-1.,0.,0.));
#545 = DIRECTION('',(0.,1.,0.));
#546 = PCURVE('',#350,#547);
#547 = DEFINITIONAL_REPRESENTATION('',(#548),#556);
#548 = ( BOUNDED_CURVE() B_SPLINE_CURVE(2,(#549,#550,#551,#552,#553,#554
,#555),.UNSPECIFIED.,.T.,.F.) B_SPLINE_CURVE_WITH_KNOTS((1,2,2,2,2,1),(
    -2.094395102393,0.,2.094395102393,4.188790204786,6.28318530718,
8.377580409573),.UNSPECIFIED.) CURVE() GEOMETRIC_REPRESENTATION_ITEM() 
RATIONAL_B_SPLINE_CURVE((1.,0.5,1.,0.5,1.,0.5,1.)) REPRESENTATION_ITEM(
  '') );
#549 = CARTESIAN_POINT('',(5.000000809633,1.000000532046));
#550 = CARTESIAN_POINT('',(5.000000809633,-7.660253505798));
#551 = CARTESIAN_POINT('',(-2.499999190367,-3.330126486876));
#552 = CARTESIAN_POINT('',(-9.999999190367,1.000000532046));
#553 = CARTESIAN_POINT('',(-2.499999190367,5.330127550968));
#554 = CARTESIAN_POINT('',(5.000000809633,9.660254569891));
#555 = CARTESIAN_POINT('',(5.000000809633,1.000000532046));
#556 = ( GEOMETRIC_REPRESENTATION_CONTEXT(2) 
PARAMETRIC_REPRESENTATION_CONTEXT() REPRESENTATION_CONTEXT('2D SPACE',''
  ) );
#557 = PCURVE('',#558,#563);
#558 = CYLINDRICAL_SURFACE('',#559,5.);
#559 = AXIS2_PLACEMENT_3D('',#560,#561,#562);
#560 = CARTESIAN_POINT('',(255.,0.,-4.));
#561 = DIRECTION('',(-1.,-0.,-0.));
#562 = DIRECTION('',(0.,1.,0.));
#563 = DEFINITIONAL_REPRESENTATION('',(#564),#568);
#564 = LINE('',#565,#566);
#565 = CARTESIAN_POINT('',(-6.28318530718,-5.));
#566 = VECTOR('',#567,1.);
#567 = DIRECTION('',(1.,-0.));
#568 = ( GEOMETRIC_REPRESENTATION_CONTEXT(2) 
PARAMETRIC_REPRESENTATION_CONTEXT() REPRESENTATION_CONTEXT('2D SPACE',''
  ) );
#569 = FACE_BOUND('',#570,.F.);
#570 = EDGE_LOOP('',(#571));
#571 = ORIENTED_EDGE('',*,*,#572,.T.);
#572 = EDGE_CURVE('',#573,#573,#575,.T.);
#573 = VERTEX_POINT('',#574);
#574 = CARTESIAN_POINT('',(260.,11.2,5.5));
#575 = SURFACE_CURVE('',#576,(#581,#592),.PCURVE_S1.);
#576 = CIRCLE('',#577,1.7);
#577 = AXIS2_PLACEMENT_3D('',#578,#579,#580);
#578 = CARTESIAN_POINT('',(260.,9.5,5.5));
#579 = DIRECTION('',(-1.,0.,0.));
#580 = DIRECTION('',(0.,1.,0.));
#581 = PCURVE('',#350,#582);
#582 = DEFINITIONAL_REPRESENTATION('',(#583),#591);
#583 = ( BOUNDED_CURVE() B_SPLINE_CURVE(2,(#584,#585,#586,#587,#588,#589
,#590),.UNSPECIFIED.,.T.,.F.) B_SPLINE_CURVE_WITH_KNOTS((1,2,2,2,2,1),(
    -2.094395102393,0.,2.094395102393,4.188790204786,6.28318530718,
8.377580409573),.UNSPECIFIED.) CURVE() GEOMETRIC_REPRESENTATION_ITEM() 
RATIONAL_B_SPLINE_CURVE((1.,0.5,1.,0.5,1.,0.5,1.)) REPRESENTATION_ITEM(
  '') );
#584 = CARTESIAN_POINT('',(11.200000809633,10.500000532046));
#585 = CARTESIAN_POINT('',(11.200000809633,7.555514159179));
#586 = CARTESIAN_POINT('',(8.650000809633,9.027757345613));
#587 = CARTESIAN_POINT('',(6.100000809633,10.500000532046));
#588 = CARTESIAN_POINT('',(8.650000809633,11.97224371848));
#589 = CARTESIAN_POINT('',(11.200000809633,13.444486904913));
#590 = CARTESIAN_POINT('',(11.200000809633,10.500000532046));
#591 = ( GEOMETRIC_REPRESENTATION_CONTEXT(2) 
PARAMETRIC_REPRESENTATION_CONTEXT() REPRESENTATION_CONTEXT('2D SPACE',''
  ) );
#592 = PCURVE('',#593,#598);
#593 = CYLINDRICAL_SURFACE('',#594,1.7);
#594 = AXIS2_PLACEMENT_3D('',#595,#596,#597);
#595 = CARTESIAN_POINT('',(255.,9.5,5.5));
#596 = DIRECTION('',(-1.,-0.,-0.));
#597 = DIRECTION('',(0.,1.,0.));
#598 = DEFINITIONAL_REPRESENTATION('',(#599),#603);
#599 = LINE('',#600,#601);
#600 = CARTESIAN_POINT('',(-6.28318530718,-5.));
#601 = VECTOR('',#602,1.);
#602 = DIRECTION('',(1.,-0.));
#603 = ( GEOMETRIC_REPRESENTATION_CONTEXT(2) 
PARAMETRIC_REPRESENTATION_CONTEXT() REPRESENTATION_CONTEXT('2D SPACE',''
  ) );
#604 = ADVANCED_FACE('',(#605,#608,#638,#668,#698,#728),#195,.T.);
#605 = FACE_BOUND('',#606,.T.);
#606 = EDGE_LOOP('',(#607));
#607 = ORIENTED_EDGE('',*,*,#117,.T.);
#608 = FACE_BOUND('',#609,.T.);
#609 = EDGE_LOOP('',(#610));
#610 = ORIENTED_EDGE('',*,*,#611,.T.);
#611 = EDGE_CURVE('',#612,#612,#614,.T.);
#612 = VERTEX_POINT('',#613);
#613 = CARTESIAN_POINT('',(265.,-7.8,-13.5));
#614 = SURFACE_CURVE('',#615,(#620,#631),.PCURVE_S1.);
#615 = CIRCLE('',#616,1.7);
#616 = AXIS2_PLACEMENT_3D('',#617,#618,#619);
#617 = CARTESIAN_POINT('',(265.,-9.5,-13.5));
#618 = DIRECTION('',(-1.,0.,0.));
#619 = DIRECTION('',(0.,1.,0.));
#620 = PCURVE('',#195,#621);
#621 = DEFINITIONAL_REPRESENTATION('',(#622),#630);
#622 = ( BOUNDED_CURVE() B_SPLINE_CURVE(2,(#623,#624,#625,#626,#627,#628
,#629),.UNSPECIFIED.,.T.,.F.) B_SPLINE_CURVE_WITH_KNOTS((1,2,2,2,2,1),(
    -2.094395102393,0.,2.094395102393,4.188790204786,6.28318530718,
8.377580409573),.UNSPECIFIED.) CURVE() GEOMETRIC_REPRESENTATION_ITEM() 
RATIONAL_B_SPLINE_CURVE((1.,0.5,1.,0.5,1.,0.5,1.)) REPRESENTATION_ITEM(
  '') );
#623 = CARTESIAN_POINT('',(-7.799999190367,-8.499999467954));
#624 = CARTESIAN_POINT('',(-7.799999190367,-11.44448584082));
#625 = CARTESIAN_POINT('',(-10.34999919036,-9.972242654387));
#626 = CARTESIAN_POINT('',(-12.89999919036,-8.499999467954));
#627 = CARTESIAN_POINT('',(-10.34999919036,-7.02775628152));
#628 = CARTESIAN_POINT('',(-7.799999190367,-5.555513095087));
#629 = CARTESIAN_POINT('',(-7.799999190367,-8.499999467954));
#630 = ( GEOMETRIC_REPRESENTATION_CONTEXT(2) 
PARAMETRIC_REPRESENTATION_CONTEXT() REPRESENTATION_CONTEXT('2D SPACE',''
  ) );
#631 = PCURVE('',#453,#632);
#632 = DEFINITIONAL_REPRESENTATION('',(#633),#637);
#633 = LINE('',#634,#635);
#634 = CARTESIAN_POINT('',(-6.28318530718,-10.));
#635 = VECTOR('',#636,1.);
#636 = DIRECTION('',(1.,-0.));
#637 = ( GEOMETRIC_REPRESENTATION_CONTEXT(2) 
PARAMETRIC_REPRESENTATION_CONTEXT() REPRESENTATION_CONTEXT('2D SPACE',''
  ) );
#638 = FACE_BOUND('',#639,.T.);
#639 = EDGE_LOOP('',(#640));
#640 = ORIENTED_EDGE('',*,*,#641,.T.);
#641 = EDGE_CURVE('',#642,#642,#644,.T.);
#642 = VERTEX_POINT('',#643);
#643 = CARTESIAN_POINT('',(265.,11.2,-13.5));
#644 = SURFACE_CURVE('',#645,(#650,#661),.PCURVE_S1.);
#645 = CIRCLE('',#646,1.7);
#646 = AXIS2_PLACEMENT_3D('',#647,#648,#649);
#647 = CARTESIAN_POINT('',(265.,9.5,-13.5));
#648 = DIRECTION('',(-1.,0.,0.));
#649 = DIRECTION('',(0.,1.,0.));
#650 = PCURVE('',#195,#651);
#651 = DEFINITIONAL_REPRESENTATION('',(#652),#660);
#652 = ( BOUNDED_CURVE() B_SPLINE_CURVE(2,(#653,#654,#655,#656,#657,#658
,#659),.UNSPECIFIED.,.T.,.F.) B_SPLINE_CURVE_WITH_KNOTS((1,2,2,2,2,1),(
    -2.094395102393,0.,2.094395102393,4.188790204786,6.28318530718,
8.377580409573),.UNSPECIFIED.) CURVE() GEOMETRIC_REPRESENTATION_ITEM() 
RATIONAL_B_SPLINE_CURVE((1.,0.5,1.,0.5,1.,0.5,1.)) REPRESENTATION_ITEM(
  '') );
#653 = CARTESIAN_POINT('',(11.200000809633,-8.499999467954));
#654 = CARTESIAN_POINT('',(11.200000809633,-11.44448584082));
#655 = CARTESIAN_POINT('',(8.650000809633,-9.972242654387));
#656 = CARTESIAN_POINT('',(6.100000809633,-8.499999467954));
#657 = CARTESIAN_POINT('',(8.650000809633,-7.02775628152));
#658 = CARTESIAN_POINT('',(11.200000809633,-5.555513095087));
#659 = CARTESIAN_POINT('',(11.200000809633,-8.499999467954));
#660 = ( GEOMETRIC_REPRESENTATION_CONTEXT(2) 
PARAMETRIC_REPRESENTATION_CONTEXT() REPRESENTATION_CONTEXT('2D SPACE',''
  ) );
#661 = PCURVE('',#488,#662);
#662 = DEFINITIONAL_REPRESENTATION('',(#663),#667);
#663 = LINE('',#664,#665);
#664 = CARTESIAN_POINT('',(-6.28318530718,-10.));
#665 = VECTOR('',#666,1.);
#666 = DIRECTION('',(1.,-0.));
#667 = ( GEOMETRIC_REPRESENTATION_CONTEXT(2) 
PARAMETRIC_REPRESENTATION_CONTEXT() REPRESENTATION_CONTEXT('2D SPACE',''
  ) );
#668 = FACE_BOUND('',#669,.T.);
#669 = EDGE_LOOP('',(#670));
#670 = ORIENTED_EDGE('',*,*,#671,.T.);
#671 = EDGE_CURVE('',#672,#672,#674,.T.);
#672 = VERTEX_POINT('',#673);
#673 = CARTESIAN_POINT('',(265.,-7.8,5.5));
#674 = SURFACE_CURVE('',#675,(#680,#691),.PCURVE_S1.);
#675 = CIRCLE('',#676,1.7);
#676 = AXIS2_PLACEMENT_3D('',#677,#678,#679);
#677 = CARTESIAN_POINT('',(265.,-9.5,5.5));
#678 = DIRECTION('',(-1.,0.,0.));
#679 = DIRECTION('',(0.,1.,0.));
#680 = PCURVE('',#195,#681);
#681 = DEFINITIONAL_REPRESENTATION('',(#682),#690);
#682 = ( BOUNDED_CURVE() B_SPLINE_CURVE(2,(#683,#684,#685,#686,#687,#688
,#689),.UNSPECIFIED.,.T.,.F.) B_SPLINE_CURVE_WITH_KNOTS((1,2,2,2,2,1),(
    -2.094395102393,0.,2.094395102393,4.188790204786,6.28318530718,
8.377580409573),.UNSPECIFIED.) CURVE() GEOMETRIC_REPRESENTATION_ITEM() 
RATIONAL_B_SPLINE_CURVE((1.,0.5,1.,0.5,1.,0.5,1.)) REPRESENTATION_ITEM(
  '') );
#683 = CARTESIAN_POINT('',(-7.799999190367,10.500000532046));
#684 = CARTESIAN_POINT('',(-7.799999190367,7.555514159179));
#685 = CARTESIAN_POINT('',(-10.34999919036,9.027757345613));
#686 = CARTESIAN_POINT('',(-12.89999919036,10.500000532046));
#687 = CARTESIAN_POINT('',(-10.34999919036,11.97224371848));
#688 = CARTESIAN_POINT('',(-7.799999190367,13.444486904913));
#689 = CARTESIAN_POINT('',(-7.799999190367,10.500000532046));
#690 = ( GEOMETRIC_REPRESENTATION_CONTEXT(2) 
PARAMETRIC_REPRESENTATION_CONTEXT() REPRESENTATION_CONTEXT('2D SPACE',''
  ) );
#691 = PCURVE('',#523,#692);
#692 = DEFINITIONAL_REPRESENTATION('',(#693),#697);
#693 = LINE('',#694,#695);
#694 = CARTESIAN_POINT('',(-6.28318530718,-10.));
#695 = VECTOR('',#696,1.);
#696 = DIRECTION('',(1.,-0.));
#697 = ( GEOMETRIC_REPRESENTATION_CONTEXT(2) 
PARAMETRIC_REPRESENTATION_CONTEXT() REPRESENTATION_CONTEXT('2D SPACE',''
  ) );
#698 = FACE_BOUND('',#699,.T.);
#699 = EDGE_LOOP('',(#700));
#700 = ORIENTED_EDGE('',*,*,#701,.T.);
#701 = EDGE_CURVE('',#702,#702,#704,.T.);
#702 = VERTEX_POINT('',#703);
#703 = CARTESIAN_POINT('',(265.,5.,-4.));
#704 = SURFACE_CURVE('',#705,(#710,#721),.PCURVE_S1.);
#705 = CIRCLE('',#706,5.);
#706 = AXIS2_PLACEMENT_3D('',#707,#708,#709);
#707 = CARTESIAN_POINT('',(265.,0.,-4.));
#708 = DIRECTION('',(-1.,0.,0.));
#709 = DIRECTION('',(0.,1.,0.));
#710 = PCURVE('',#195,#711);
#711 = DEFINITIONAL_REPRESENTATION('',(#712),#720);
#712 = ( BOUNDED_CURVE() B_SPLINE_CURVE(2,(#713,#714,#715,#716,#717,#718
,#719),.UNSPECIFIED.,.T.,.F.) B_SPLINE_CURVE_WITH_KNOTS((1,2,2,2,2,1),(
    -2.094395102393,0.,2.094395102393,4.188790204786,6.28318530718,
8.377580409573),.UNSPECIFIED.) CURVE() GEOMETRIC_REPRESENTATION_ITEM() 
RATIONAL_B_SPLINE_CURVE((1.,0.5,1.,0.5,1.,0.5,1.)) REPRESENTATION_ITEM(
  '') );
#713 = CARTESIAN_POINT('',(5.000000809633,1.000000532046));
#714 = CARTESIAN_POINT('',(5.000000809633,-7.660253505798));
#715 = CARTESIAN_POINT('',(-2.499999190367,-3.330126486876));
#716 = CARTESIAN_POINT('',(-9.999999190367,1.000000532046));
#717 = CARTESIAN_POINT('',(-2.499999190367,5.330127550968));
#718 = CARTESIAN_POINT('',(5.000000809633,9.660254569891));
#719 = CARTESIAN_POINT('',(5.000000809633,1.000000532046));
#720 = ( GEOMETRIC_REPRESENTATION_CONTEXT(2) 
PARAMETRIC_REPRESENTATION_CONTEXT() REPRESENTATION_CONTEXT('2D SPACE',''
  ) );
#721 = PCURVE('',#558,#722);
#722 = DEFINITIONAL_REPRESENTATION('',(#723),#727);
#723 = LINE('',#724,#725);
#724 = CARTESIAN_POINT('',(-6.28318530718,-10.));
#725 = VECTOR('',#726,1.);
#726 = DIRECTION('',(1.,-0.));
#727 = ( GEOMETRIC_REPRESENTATION_CONTEXT(2) 
PARAMETRIC_REPRESENTATION_CONTEXT() REPRESENTATION_CONTEXT('2D SPACE',''
  ) );
#728 = FACE_BOUND('',#729,.T.);
#729 = EDGE_LOOP('',(#730));
#730 = ORIENTED_EDGE('',*,*,#731,.T.);
#731 = EDGE_CURVE('',#732,#732,#734,.T.);
#732 = VERTEX_POINT('',#733);
#733 = CARTESIAN_POINT('',(265.,11.2,5.5));
#734 = SURFACE_CURVE('',#735,(#740,#751),.PCURVE_S1.);
#735 = CIRCLE('',#736,1.7);
#736 = AXIS2_PLACEMENT_3D('',#737,#738,#739);
#737 = CARTESIAN_POINT('',(265.,9.5,5.5));
#738 = DIRECTION('',(-1.,0.,0.));
#739 = DIRECTION('',(0.,1.,0.));
#740 = PCURVE('',#195,#741);
#741 = DEFINITIONAL_REPRESENTATION('',(#742),#750);
#742 = ( BOUNDED_CURVE() B_SPLINE_CURVE(2,(#743,#744,#745,#746,#747,#748
,#749),.UNSPECIFIED.,.T.,.F.) B_SPLINE_CURVE_WITH_KNOTS((1,2,2,2,2,1),(
    -2.094395102393,0.,2.094395102393,4.188790204786,6.28318530718,
8.377580409573),.UNSPECIFIED.) CURVE() GEOMETRIC_REPRESENTATION_ITEM() 
RATIONAL_B_SPLINE_CURVE((1.,0.5,1.,0.5,1.,0.5,1.)) REPRESENTATION_ITEM(
  '') );
#743 = CARTESIAN_POINT('',(11.200000809633,10.500000532046));
#744 = CARTESIAN_POINT('',(11.200000809633,7.555514159179));
#745 = CARTESIAN_POINT('',(8.650000809633,9.027757345613));
#746 = CARTESIAN_POINT('',(6.100000809633,10.500000532046));
#747 = CARTESIAN_POINT('',(8.650000809633,11.97224371848));
#748 = CARTESIAN_POINT('',(11.200000809633,13.444486904913));
#749 = CARTESIAN_POINT('',(11.200000809633,10.500000532046));
#750 = ( GEOMETRIC_REPRESENTATION_CONTEXT(2) 
PARAMETRIC_REPRESENTATION_CONTEXT() REPRESENTATION_CONTEXT('2D SPACE',''
  ) );
#751 = PCURVE('',#593,#752);
#752 = DEFINITIONAL_REPRESENTATION('',(#753),#757);
#753 = LINE('',#754,#755);
#754 = CARTESIAN_POINT('',(-6.28318530718,-10.));
#755 = VECTOR('',#756,1.);
#756 = DIRECTION('',(1.,-0.));
#757 = ( GEOMETRIC_REPRESENTATION_CONTEXT(2) 
PARAMETRIC_REPRESENTATION_CONTEXT() REPRESENTATION_CONTEXT('2D SPACE',''
  ) );
#758 = ADVANCED_FACE('',(#759),#453,.F.);
#759 = FACE_BOUND('',#760,.T.);
#760 = EDGE_LOOP('',(#761,#762,#783,#784));
#761 = ORIENTED_EDGE('',*,*,#432,.T.);
#762 = ORIENTED_EDGE('',*,*,#763,.T.);
#763 = EDGE_CURVE('',#433,#612,#764,.T.);
#764 = SEAM_CURVE('',#765,(#769,#776),.PCURVE_S1.);
#765 = LINE('',#766,#767);
#766 = CARTESIAN_POINT('',(255.,-7.8,-13.5));
#767 = VECTOR('',#768,1.);
#768 = DIRECTION('',(1.,0.,0.));
#769 = PCURVE('',#453,#770);
#770 = DEFINITIONAL_REPRESENTATION('',(#771),#775);
#771 = LINE('',#772,#773);
#772 = CARTESIAN_POINT('',(-6.28318530718,0.));
#773 = VECTOR('',#774,1.);
#774 = DIRECTION('',(-0.,-1.));
#775 = ( GEOMETRIC_REPRESENTATION_CONTEXT(2) 
PARAMETRIC_REPRESENTATION_CONTEXT() REPRESENTATION_CONTEXT('2D SPACE',''
  ) );
#776 = PCURVE('',#453,#777);
#777 = DEFINITIONAL_REPRESENTATION('',(#778),#782);
#778 = LINE('',#779,#780);
#779 = CARTESIAN_POINT('',(-0.,0.));
#780 = VECTOR('',#781,1.);
#781 = DIRECTION('',(-0.,-1.));
#782 = ( GEOMETRIC_REPRESENTATION_CONTEXT(2) 
PARAMETRIC_REPRESENTATION_CONTEXT() REPRESENTATION_CONTEXT('2D SPACE',''
  ) );
#783 = ORIENTED_EDGE('',*,*,#611,.F.);
#784 = ORIENTED_EDGE('',*,*,#763,.F.);
#785 = ADVANCED_FACE('',(#786),#488,.F.);
#786 = FACE_BOUND('',#787,.T.);
#787 = EDGE_LOOP('',(#788,#789,#810,#811));
#788 = ORIENTED_EDGE('',*,*,#467,.T.);
#789 = ORIENTED_EDGE('',*,*,#790,.T.);
#790 = EDGE_CURVE('',#468,#642,#791,.T.);
#791 = SEAM_CURVE('',#792,(#796,#803),.PCURVE_S1.);
#792 = LINE('',#793,#794);
#793 = CARTESIAN_POINT('',(255.,11.2,-13.5));
#794 = VECTOR('',#795,1.);
#795 = DIRECTION('',(1.,0.,0.));
#796 = PCURVE('',#488,#797);
#797 = DEFINITIONAL_REPRESENTATION('',(#798),#802);
#798 = LINE('',#799,#800);
#799 = CARTESIAN_POINT('',(-6.28318530718,0.));
#800 = VECTOR('',#801,1.);
#801 = DIRECTION('',(-0.,-1.));
#802 = ( GEOMETRIC_REPRESENTATION_CONTEXT(2) 
PARAMETRIC_REPRESENTATION_CONTEXT() REPRESENTATION_CONTEXT('2D SPACE',''
  ) );
#803 = PCURVE('',#488,#804);
#804 = DEFINITIONAL_REPRESENTATION('',(#805),#809);
#805 = LINE('',#806,#807);
#806 = CARTESIAN_POINT('',(-0.,0.));
#807 = VECTOR('',#808,1.);
#808 = DIRECTION('',(-0.,-1.));
#809 = ( GEOMETRIC_REPRESENTATION_CONTEXT(2) 
PARAMETRIC_REPRESENTATION_CONTEXT() REPRESENTATION_CONTEXT('2D SPACE',''
  ) );
#810 = ORIENTED_EDGE('',*,*,#641,.F.);
#811 = ORIENTED_EDGE('',*,*,#790,.F.);
#812 = ADVANCED_FACE('',(#813),#523,.F.);
#813 = FACE_BOUND('',#814,.T.);
#814 = EDGE_LOOP('',(#815,#816,#837,#838));
#815 = ORIENTED_EDGE('',*,*,#502,.T.);
#816 = ORIENTED_EDGE('',*,*,#817,.T.);
#817 = EDGE_CURVE('',#503,#672,#818,.T.);
#818 = SEAM_CURVE('',#819,(#823,#830),.PCURVE_S1.);
#819 = LINE('',#820,#821);
#820 = CARTESIAN_POINT('',(255.,-7.8,5.5));
#821 = VECTOR('',#822,1.);
#822 = DIRECTION('',(1.,0.,0.));
#823 = PCURVE('',#523,#824);
#824 = DEFINITIONAL_REPRESENTATION('',(#825),#829);
#825 = LINE('',#826,#827);
#826 = CARTESIAN_POINT('',(-6.28318530718,0.));
#827 = VECTOR('',#828,1.);
#828 = DIRECTION('',(-0.,-1.));
#829 = ( GEOMETRIC_REPRESENTATION_CONTEXT(2) 
PARAMETRIC_REPRESENTATION_CONTEXT() REPRESENTATION_CONTEXT('2D SPACE',''
  ) );
#830 = PCURVE('',#523,#831);
#831 = DEFINITIONAL_REPRESENTATION('',(#832),#836);
#832 = LINE('',#833,#834);
#833 = CARTESIAN_POINT('',(-0.,0.));
#834 = VECTOR('',#835,1.);
#835 = DIRECTION('',(-0.,-1.));
#836 = ( GEOMETRIC_REPRESENTATION_CONTEXT(2) 
PARAMETRIC_REPRESENTATION_CONTEXT() REPRESENTATION_CONTEXT('2D SPACE',''
  ) );
#837 = ORIENTED_EDGE('',*,*,#671,.F.);
#838 = ORIENTED_EDGE('',*,*,#817,.F.);
#839 = ADVANCED_FACE('',(#840),#558,.F.);
#840 = FACE_BOUND('',#841,.T.);
#841 = EDGE_LOOP('',(#842,#843,#864,#865));
#842 = ORIENTED_EDGE('',*,*,#537,.T.);
#843 = ORIENTED_EDGE('',*,*,#844,.T.);
#844 = EDGE_CURVE('',#538,#702,#845,.T.);
#845 = SEAM_CURVE('',#846,(#850,#857),.PCURVE_S1.);
#846 = LINE('',#847,#848);
#847 = CARTESIAN_POINT('',(255.,5.,-4.));
#848 = VECTOR('',#849,1.);
#849 = DIRECTION('',(1.,0.,0.));
#850 = PCURVE('',#558,#851);
#851 = DEFINITIONAL_REPRESENTATION('',(#852),#856);
#852 = LINE('',#853,#854);
#853 = CARTESIAN_POINT('',(-6.28318530718,0.));
#854 = VECTOR('',#855,1.);
#855 = DIRECTION('',(-0.,-1.));
#856 = ( GEOMETRIC_REPRESENTATION_CONTEXT(2) 
PARAMETRIC_REPRESENTATION_CONTEXT() REPRESENTATION_CONTEXT('2D SPACE',''
  ) );
#857 = PCURVE('',#558,#858);
#858 = DEFINITIONAL_REPRESENTATION('',(#859),#863);
#859 = LINE('',#860,#861);
#860 = CARTESIAN_POINT('',(-0.,0.));
#861 = VECTOR('',#862,1.);
#862 = DIRECTION('',(-0.,-1.));
#863 = ( GEOMETRIC_REPRESENTATION_CONTEXT(2) 
PARAMETRIC_REPRESENTATION_CONTEXT() REPRESENTATION_CONTEXT('2D SPACE',''
  ) );
#864 = ORIENTED_EDGE('',*,*,#701,.F.);
#865 = ORIENTED_EDGE('',*,*,#844,.F.);
#866 = ADVANCED_FACE('',(#867),#593,.F.);
#867 = FACE_BOUND('',#868,.T.);
#868 = EDGE_LOOP('',(#869,#870,#891,#892));
#869 = ORIENTED_EDGE('',*,*,#572,.T.);
#870 = ORIENTED_EDGE('',*,*,#871,.T.);
#871 = EDGE_CURVE('',#573,#732,#872,.T.);
#872 = SEAM_CURVE('',#873,(#877,#884),.PCURVE_S1.);
#873 = LINE('',#874,#875);
#874 = CARTESIAN_POINT('',(255.,11.2,5.5));
#875 = VECTOR('',#876,1.);
#876 = DIRECTION('',(1.,0.,0.));
#877 = PCURVE('',#593,#878);
#878 = DEFINITIONAL_REPRESENTATION('',(#879),#883);
#879 = LINE('',#880,#881);
#880 = CARTESIAN_POINT('',(-6.28318530718,0.));
#881 = VECTOR('',#882,1.);
#882 = DIRECTION('',(-0.,-1.));
#883 = ( GEOMETRIC_REPRESENTATION_CONTEXT(2) 
PARAMETRIC_REPRESENTATION_CONTEXT() REPRESENTATION_CONTEXT('2D SPACE',''
  ) );
#884 = PCURVE('',#593,#885);
#885 = DEFINITIONAL_REPRESENTATION('',(#886),#890);
#886 = LINE('',#887,#888);
#887 = CARTESIAN_POINT('',(-0.,0.));
#888 = VECTOR('',#889,1.);
#889 = DIRECTION('',(-0.,-1.));
#890 = ( GEOMETRIC_REPRESENTATION_CONTEXT(2) 
PARAMETRIC_REPRESENTATION_CONTEXT() REPRESENTATION_CONTEXT('2D SPACE',''
  ) );
#891 = ORIENTED_EDGE('',*,*,#731,.F.);
#892 = ORIENTED_EDGE('',*,*,#871,.F.);
#893 = ( GEOMETRIC_REPRESENTATION_CONTEXT(3) 
GLOBAL_UNCERTAINTY_ASSIGNED_CONTEXT((#897)) GLOBAL_UNIT_ASSIGNED_CONTEXT
((#894,#895,#896)) REPRESENTATION_CONTEXT('Context #1',
  '3D Context with UNIT and UNCERTAINTY') );
#894 = ( LENGTH_UNIT() NAMED_UNIT(*) SI_UNIT(.MILLI.,.METRE.) );
#895 = ( NAMED_UNIT(*) PLANE_ANGLE_UNIT() SI_UNIT($,.RADIAN.) );
#896 = ( NAMED_UNIT(*) SI_UNIT($,.STERADIAN.) SOLID_ANGLE_UNIT() );
#897 = UNCERTAINTY_MEASURE_WITH_UNIT(LENGTH_MEASURE(1.E-07),#894,
  'distance_accuracy_value','confusion accuracy');
#898 = PRODUCT_RELATED_PRODUCT_CATEGORY('part',$,(#7));
ENDSEC;
END-ISO-10303-21;
